<?xml version="1.0" standalone="no"?><!DOCTYPE svg PUBLIC "-//W3C//DTD SVG 1.1//EN" "http://www.w3.org/Graphics/SVG/1.1/DTD/svg11.dtd"><svg t="1711361145830" class="icon" viewBox="0 0 1024 1024" version="1.1" xmlns="http://www.w3.org/2000/svg" p-id="32348" xmlns:xlink="http://www.w3.org/1999/xlink" width="128" height="128"><path d="M573.312 81.088l277.504 160.192c39.488 22.784 63.744 64.96 63.744 110.528v320.384c0 45.632-24.32 87.68-63.744 110.528l-277.504 160.192a127.552 127.552 0 0 1-127.552 0L168.256 782.72a127.552 127.552 0 0 1-63.808-110.528V351.808c0-45.568 24.32-87.68 63.808-110.528l277.504-160.192a127.552 127.552 0 0 1 127.552 0zM189.44 383.552v288.64c0 13.504 6.4 26.112 17.088 34.112l4.16 2.752 256.256 147.84V537.152l-277.504-153.6z m640-1.408L552 536.96v320l256.32-147.904a42.56 42.56 0 0 0 20.928-31.808l0.32-5.056V382.144zM493.312 152.256l-5.056 2.496-262.656 151.552L509.44 463.36l282.688-157.696-261.376-150.848a42.496 42.496 0 0 0-37.44-2.56z" p-id="32349"></path></svg>